<svg xmlns="http://www.w3.org/2000/svg" version="1.1" xmlns:xlink="http://www.w3.org/1999/xlink" viewBox="0 0 200 200" width="200" height="200"><metadata><rdf:RDF xmlns:rdf="http://www.w3.org/1999/02/22-rdf-syntax-ns#" xmlns:dc="http://purl.org/dc/elements/1.1/"><rdf:Description><dc:creator>RealFaviconGenerator</dc:creator><dc:source>https://realfavicongenerator.net</dc:source></rdf:Description></rdf:RDF></metadata><rect width="200" height="200" fill="url('#gradient')"></rect><defs><linearGradient id="gradient" gradientTransform="rotate(0 0.5 0.5)"><stop offset="0%" stop-color="#0f3b40"></stop><stop offset="100%" stop-color="#0f3b40"></stop></linearGradient></defs><g><g fill="#f27830" transform="matrix(5.527665317139001,0,0,5.527665317139001,-6.35544534717333,139.30595882186685)" stroke="#d93814" stroke-width="0"><path d="M2.97-3.19L2.97-3.19Q3.75-3.19 4.27-2.73Q4.79-2.27 4.79-1.54Q4.79-0.82 4.27-0.36Q3.75 0.11 2.97 0.11L2.97 0.11Q2.18 0.11 1.67-0.36Q1.15-0.83 1.15-1.54Q1.15-2.26 1.67-2.72Q2.18-3.19 2.97-3.19ZM2.97-10.99L2.97-10.99Q3.75-10.99 4.27-10.52Q4.79-10.06 4.79-9.34Q4.79-8.61 4.27-8.15Q3.75-7.69 2.97-7.69L2.97-7.69Q2.18-7.69 1.67-8.15Q1.15-8.62 1.15-9.34Q1.15-10.05 1.67-10.52Q2.18-10.99 2.97-10.99ZM15.99 0L15.16-2.66L10.46-2.66L9.64 0L5.98 0L11.19-14.22L14.41-14.22L19.67 0L15.99 0ZM12.80-10.23L11.28-5.30L14.34-5.30L12.80-10.23ZM28.59-4.81L32.00-4.81Q31.93-3.33 31.20-2.19Q30.47-1.05 29.15-0.43Q27.82 0.20 26.12 0.20L26.12 0.20Q23.32 0.20 21.71-1.63Q20.10-3.46 20.10-6.79L20.10-6.79L20.10-7.49Q20.10-9.58 20.83-11.15Q21.55-12.71 22.92-13.57Q24.29-14.42 26.08-14.42L26.08-14.42Q28.67-14.42 30.24-13.06Q31.82-11.70 32.03-9.31L32.03-9.31L28.61-9.31Q28.57-10.61 27.96-11.17Q27.34-11.74 26.08-11.74L26.08-11.74Q24.80-11.74 24.21-10.78Q23.61-9.82 23.58-7.72L23.58-7.72L23.58-6.72Q23.58-4.44 24.16-3.47Q24.73-2.49 26.12-2.49L26.12-2.49Q27.30-2.49 27.93-3.05Q28.55-3.60 28.59-4.81L28.59-4.81ZM35.52-3.19L35.52-3.19Q36.30-3.19 36.82-2.73Q37.33-2.27 37.33-1.54Q37.33-0.82 36.82-0.36Q36.30 0.11 35.52 0.11L35.52 0.11Q34.73 0.11 34.21-0.36Q33.70-0.83 33.70-1.54Q33.70-2.26 34.21-2.72Q34.73-3.19 35.52-3.19ZM35.52-10.99L35.52-10.99Q36.30-10.99 36.82-10.52Q37.33-10.06 37.33-9.34Q37.33-8.61 36.82-8.15Q36.30-7.69 35.52-7.69L35.52-7.69Q34.73-7.69 34.21-8.15Q33.70-8.62 33.70-9.34Q33.70-10.05 34.21-10.52Q34.73-10.99 35.52-10.99Z"></path></g></g></svg>